<svg xmlns="http://www.w3.org/2000/svg" version="1.1" xmlns:xlink="http://www.w3.org/1999/xlink" xmlns:svgjs="http://svgjs.dev/svgjs" width="100%" height="100%" viewBox="0 0 1000 600"><rect width="1000" height="600" x="0" y="0" fill="#ffffff"/><g><rect width="333.3333333333333" height="333.3333333333333" rx="13.333333333333334" ry="13.333333333333334" y="220.2270491322576" fill="#ffd700" transform="matrix(0.6312979259542265,0,0,0.6312979259542264,0,55.75483598713778)" x="198.00482177734375"/><path d="M353.65370937133474 311.8937190142589L353.65370937133474 328.1859640303557L305.4509340988902 328.1859640303557L305.4509340988902 461.89372303835853L285.7595876046149 461.89372303835853L285.7595876046149 328.1859640303557L237.6447201290198 328.1859640303557L237.6447201290198 311.8937190142589L353.65370937133474 311.8937190142589ZM384.56795126338886 311.8937190142589L427.2032327353687 435.6385943793249L470.0729349989472 311.8937190142589L491.69825302391007 311.8937190142589L436.05261761821265 461.89372303835853L418.5589660451735 461.89372303835853L363.0305410352753 311.8937190142589L384.56795126338886 311.8937190142589Z " fill="#ffffff" transform="matrix(0.6312979259542265,0,0,0.6312979259542264,0,55.75483598713778)"/><path d="M723.2363819877378 319.5993863922361L723.2363819877378 334.84618691083966L678.1266934030205 334.84618691083966L678.1266934030205 459.9741559151346L659.6989057258593 459.9741559151346L659.6989057258593 334.84618691083966L614.671484050415 334.84618691083966L614.671484050415 319.5993863922361L723.2363819877378 319.5993863922361ZM752.1669117487571 319.5993863922361L792.0663627461819 435.40377234558645L832.1851921683348 319.5993863922361L852.4228518495028 319.5993863922361L800.347898279668 459.9741559151346L783.9767833343329 459.9741559151346L732.0115189768621 319.5993863922361L752.1669117487571 319.5993863922361ZM961.4539289393728 397.39646026144163L961.4539289393728 397.39646026144163Q937.651369856373 390.56830679177926 926.7921378323316 380.5865884666503Q915.9603281113813 370.60487014152136 915.9603281113813 355.9613602909201L915.9603281113813 355.9613602909201Q915.9603281113813 339.3708669208569 929.2053005043409 328.5116348968155Q942.4502728973004 317.6798251758651 963.6751354897449 317.6798251758651L963.6751354897449 317.6798251758651Q978.1266892187091 317.6798251758651 989.4521003952976 323.2739750064319Q1000.7775115718863 328.8681248369987 1007.0023743735463 338.68530934358154Q1013.2272371752065 348.5299161532554 1013.2272371752065 360.18439496693617L1013.2272371752065 360.18439496693617L994.6074933764083 360.18439496693617Q994.6074933764083 347.4604463327059 986.5179139645592 340.1935360135873Q978.4283345527102 332.8992033913776 963.6751354897449 332.8992033913776L963.6751354897449 332.8992033913776Q949.9914062473291 332.8992033913776 942.3131613818454 338.93211007140064Q934.6623388194525 344.96501675142366 934.6623388194525 355.65971495691895L934.6623388194525 355.65971495691895Q934.6623388194525 364.2428958244062 941.9292491385712 370.1661132920651Q949.1961594576898 376.0893307597241 966.7190111328474 381.0253453161065Q984.214440504914 385.9339375693979 994.086469617679 391.8571550370569Q1003.9584987304439 397.78037250471584 1008.7299794682802 405.70541809801875Q1013.5014602061166 413.6030413882307 1013.5014602061166 424.29773959372596L1013.5014602061166 424.29773959372596Q1013.5014602061166 441.3544121163364 1000.2016432069751 451.6377757754665Q986.9018262078334 461.8937171315056 964.6349160979304 461.8937171315056L964.6349160979304 461.8937171315056Q950.1833623689662 461.8937171315056 937.651369856373 456.35441190712083Q925.1193773437798 450.8151066827361 918.3186461772085 441.1624559946993Q911.517915010637 431.53722760975353 911.517915010637 419.2794581280705L911.517915010637 419.2794581280705L930.1102365063442 419.2794581280705Q930.1102365063442 432.00340676230076 939.5160864665619 439.3800062937834Q948.9219364267796 446.7566058252661 964.6349160979304 446.7566058252661L964.6349160979304 446.7566058252661Q979.2784259485317 446.7566058252661 987.0937823294705 440.7785437514251Q994.9091387104094 434.8004816775841 994.9091387104094 424.48969571536304Q994.9091387104094 414.17890975314197 987.6696506943819 408.5299153163931Q980.4575849814453 402.90834318273534 961.4539289393728 397.39646026144163ZM1052.2765967768098 311.89371922366126L1052.2765967768098 368.3013966818762Q1064.1230317121276 353.740153740548 1083.1266877542002 353.740153740548L1083.1266877542002 353.740153740548Q1116.1979852819625 353.740153740548 1116.4722083128727 391.0344859443265L1116.4722083128727 391.0344859443265L1116.4722083128727 459.9741559151346L1098.647711303714 459.9741559151346L1098.647711303714 390.9522190350534Q1098.5380220913498 379.6542301615558 1093.4923183226033 374.2794587557172Q1088.4191922507657 368.8772650467875 1077.7244940452706 368.8772650467875L1077.7244940452706 368.8772650467875Q1069.031623965419 368.8772650467875 1062.4776935266668 373.4842119660778Q1055.9237630879147 378.1185811884591 1052.2765967768098 385.6322922353968L1052.2765967768098 385.6322922353968L1052.2765967768098 459.9741559151346L1034.4246774645599 459.9741559151346L1034.4246774645599 311.89371922366126L1052.2765967768098 311.89371922366126ZM1138.4648953918654 408.11858077002796L1138.4648953918654 406.85715482784127Q1138.4648953918654 391.5280873999647 1144.4703797687976 379.27031791828165Q1150.5032864488205 367.0399707396896 1161.252829260498 360.3763510885733Q1172.0023720721751 353.740153740548 1185.795790526955 353.740153740548L1185.795790526955 353.740153740548Q1207.1029200286725 353.740153740548 1220.265625512359 368.4933528035133Q1233.4283309960456 383.2465518664786 1233.4283309960456 407.73466852675375L1233.4283309960456 407.73466852675375L1233.4283309960456 408.96867216584934Q1233.4283309960456 424.2154726844529 1227.5873804376597 436.3087083475899Q1221.7464298792738 448.4019440107269 1210.9146201583235 455.14783057111623Q1200.055388134282 461.8937171315056 1185.987746648592 461.8937171315056L1185.987746648592 461.8937171315056Q1164.7628840561474 461.8937171315056 1151.6276008755522 447.14051806854025Q1138.4648953918654 432.41474130866595 1138.4648953918654 408.11858077002796L1138.4648953918654 408.11858077002796ZM1156.3990816133885 408.96867216584934L1156.3990816133885 408.96867216584934Q1156.3990816133885 426.32699002246096 1164.4338164190553 436.82973210631917Q1172.4959735278132 447.3324741901773 1185.987746648592 447.3324741901773L1185.987746648592 447.3324741901773Q1199.5892089817348 447.3324741901773 1207.5690991812198 436.69262059086407Q1215.5764116837956 426.0253446884598 1215.5764116837956 406.85715482784127L1215.5764116837956 406.85715482784127Q1215.5764116837956 389.6907930928668 1207.4319876657646 379.0509394935535Q1199.2875636477336 368.38366359114923 1185.795790526955 368.38366359114923L1185.795790526955 368.38366359114923Q1172.5782404370864 368.38366359114923 1164.4886610252374 378.88640567500744Q1156.3990816133885 389.4165700619567 1156.3990816133885 408.96867216584934ZM1323.3734851345703 355.65971495691895L1348.1358248257557 435.40377234558645L1368.1815283852866 355.65971495691895L1386.0334476975363 355.65971495691895L1355.6495358726934 459.9741559151346L1341.197982143729 459.9741559151346L1315.8323517845415 380.91565610374244L1291.1522790026293 459.9741559151346L1276.7007252736648 459.9741559151346L1246.426502661186 355.65971495691895L1264.168732761072 355.65971495691895L1284.7080377762409 433.7584341601256L1309.004198314879 355.65971495691895L1323.3734851345703 355.65971495691895Z " fill="#ffd700" transform="matrix(0.6312979259542265,0,0,0.6312979259542264,0,55.75483598713778)"/></g></svg>